<svg width="326" height="67" viewBox="0 0 326 67" fill="none" xmlns="http://www.w3.org/2000/svg">
<path d="M62.2006 1.17871H91.1172V3.51204H76.2006V13.8245H83.5339V16.1995H76.2006V26.6162H91.1172V29.012H62.2006V1.17871Z" fill="black"/>
<path d="M93.3786 1.17871H107.358V26.6162H122.462V29.012H93.3786V1.17871Z" fill="black"/>
<path d="M138.091 29.2204C133.283 29.2204 129.851 28.5225 127.799 27.1162C125.742 25.6995 124.716 23.5485 124.716 20.6579V1.17871H139.924V20.6579C139.924 22.5485 140.341 23.9235 141.174 24.7829C142.007 25.6475 143.112 26.0745 144.487 26.0745C147.57 26.0745 149.112 24.2725 149.112 20.6579V1.17871H151.445V20.6579C151.445 22.9079 150.966 24.6527 150.007 25.887C149.059 27.1266 147.632 27.9912 145.716 28.4912C143.809 28.9808 141.268 29.2204 138.091 29.2204Z" fill="black"/>
<path d="M174.667 11.1579C177.833 12.0068 180.193 13.1266 181.75 14.512C183.318 15.9027 184.104 17.7152 184.104 19.9495C184.104 21.7308 183.542 23.3193 182.417 24.7204C181.302 26.1266 179.667 27.2308 177.5 28.0329C175.344 28.8245 172.734 29.2204 169.667 29.2204C166.026 29.2204 162.818 28.7516 160.042 27.8037C157.276 26.861 155.115 25.7152 153.563 24.3662L154.875 22.5745C156.25 23.6579 157.984 24.5902 160.083 25.3662C162.177 26.1318 164.427 26.512 166.833 26.512C168.401 26.512 169.589 26.2933 170.396 25.8454C171.198 25.387 171.604 24.7516 171.604 23.9287C171.604 22.5016 170.188 21.3818 167.354 20.5745L162.188 19.0745C159.38 18.2308 157.214 17.0485 155.688 15.5329C154.156 14.0225 153.396 12.2308 153.396 10.1579C153.396 8.43913 153.938 6.87663 155.021 5.47038C156.115 4.06934 157.698 2.96517 159.771 2.15788C161.854 1.34017 164.354 0.928711 167.271 0.928711C170.063 0.928711 172.63 1.25163 174.979 1.88704C177.323 2.52767 179.24 3.2985 180.729 4.19954L179.417 6.03288C178.167 5.31413 176.672 4.69954 174.938 4.19954C173.198 3.69954 171.375 3.44954 169.458 3.44954C167.792 3.44954 166.511 3.70996 165.625 4.22038C164.734 4.736 164.292 5.44434 164.292 6.34538C164.292 7.04329 164.625 7.64746 165.292 8.15788C165.958 8.6735 167.214 9.17871 169.063 9.67871L174.667 11.1579Z" fill="black"/>
<path d="M186.078 1.17871H199.057V29.012H186.078V1.17871Z" fill="black"/>
<path d="M200.642 1.17871H213.538L222.642 21.6995L230.267 1.17871H233.33L222.83 29.012H212.975L200.642 1.17871Z" fill="black"/>
<path d="M234.833 1.17871H263.75V3.51204H248.833V13.8245H256.166V16.1995H248.833V26.6162H263.75V29.012H234.833V1.17871Z" fill="black"/>
<path d="M116.561 48.1074C117.613 48.1074 118.582 48.3678 119.457 48.8782C120.342 49.3938 121.045 50.1178 121.561 51.0449C122.071 51.9615 122.332 53.0396 122.332 54.274C122.332 55.5657 122.05 56.7011 121.498 57.6699C120.957 58.6282 120.212 59.3678 119.269 59.8782C118.337 60.3886 117.321 60.649 116.227 60.649C115.254 60.649 114.373 60.4615 113.582 60.0865C112.8 59.7011 112.165 59.1855 111.665 58.5449V60.3574H109.019V38.3365H111.665V50.149C112.165 49.524 112.842 49.0344 113.707 48.6699C114.566 48.2949 115.519 48.1074 116.561 48.1074ZM115.644 58.3782C116.795 58.3782 117.748 57.9928 118.498 57.2115C119.248 56.4355 119.623 55.4563 119.623 54.274C119.623 53.524 119.446 52.8469 119.102 52.2324C118.754 51.6074 118.274 51.1178 117.665 50.7532C117.05 50.3938 116.379 50.2115 115.644 50.2115C114.686 50.2115 113.837 50.4771 113.102 51.0032C112.379 51.5188 111.899 52.2011 111.665 53.0449V55.4407C111.899 56.2896 112.373 56.9928 113.082 57.5449C113.8 58.1021 114.655 58.3782 115.644 58.3782Z" fill="black"/>
<path d="M124.85 54.3574C124.85 53.2063 125.126 52.149 125.683 51.1907C126.251 50.2324 127.027 49.4824 128.016 48.9407C129.016 48.3886 130.141 48.1074 131.391 48.1074C132.641 48.1074 133.751 48.3886 134.725 48.9407C135.709 49.4824 136.464 50.2324 136.996 51.1907C137.537 52.1386 137.808 53.1907 137.808 54.3574C137.808 55.5397 137.537 56.6074 136.996 57.5657C136.464 58.524 135.709 59.2844 134.725 59.8365C133.735 60.3782 132.605 60.649 131.329 60.649C130.105 60.649 129.001 60.3886 128.016 59.8782C127.027 59.3522 126.251 58.6178 125.683 57.6699C125.126 56.7115 124.85 55.6074 124.85 54.3574ZM127.537 54.399C127.537 55.1386 127.694 55.8157 128.016 56.4407C128.35 57.0657 128.808 57.5605 129.391 57.9199C129.975 58.2844 130.61 58.4615 131.308 58.4615C132.402 58.4615 133.313 58.0761 134.037 57.2949C134.756 56.5188 135.121 55.5553 135.121 54.399C135.121 53.2324 134.756 52.2636 134.037 51.4824C133.313 50.6907 132.402 50.2949 131.308 50.2949C130.584 50.2949 129.938 50.4824 129.371 50.8574C128.798 51.2219 128.35 51.7115 128.016 52.3365C127.694 52.9615 127.537 53.649 127.537 54.399Z" fill="black"/>
<path d="M152.316 48.5865V60.3574H149.921L149.754 58.1074C149.348 58.9146 148.733 59.5657 147.9 60.0657C147.066 60.5657 146.139 60.8157 145.129 60.8157C144.046 60.8157 143.155 60.4876 142.462 59.8365C141.764 59.1855 141.4 58.3365 141.358 57.2949V48.5865H144.004V56.3574C144.046 57.0136 144.238 57.5344 144.587 57.9199C144.947 58.3105 145.473 58.5188 146.171 58.5449C146.806 58.5449 147.389 58.3521 147.921 57.9615C148.462 57.5761 148.884 57.0396 149.191 56.3574C149.509 55.6803 149.671 54.9199 149.671 54.0865V48.5865H152.316Z" fill="black"/>
<path d="M160.715 43.4199V48.6282H163.923V50.7324H160.715V60.3574H158.048V50.7324H155.881V48.6282H158.048V43.4199H160.715Z" fill="black"/>
<path d="M169.778 48.5865V60.3574H167.133V48.5865H169.778ZM166.32 44.1282C166.32 43.7115 166.476 43.3678 166.799 43.0865C167.117 42.7949 167.487 42.649 167.903 42.649C168.32 42.649 168.679 42.7949 168.987 43.0865C169.304 43.3678 169.466 43.7115 169.466 44.1282C169.466 44.5449 169.304 44.899 168.987 45.1907C168.679 45.4719 168.32 45.6074 167.903 45.6074C167.487 45.6074 167.117 45.4719 166.799 45.1907C166.476 44.899 166.32 44.5449 166.32 44.1282Z" fill="black"/>
<path d="M186.671 48.399V66.0032H184.025V58.5865C183.525 59.2011 182.837 59.7011 181.962 60.0865C181.098 60.4615 180.15 60.649 179.108 60.649C178.051 60.649 177.087 60.3886 176.212 59.8782C175.337 59.3678 174.639 58.6438 174.129 57.7115C173.613 56.7688 173.358 55.6803 173.358 54.4407C173.358 53.2219 173.634 52.1282 174.191 51.1699C174.759 50.2011 175.509 49.4511 176.441 48.9199C177.384 48.3782 178.426 48.1074 179.566 48.1074C180.494 48.1074 181.337 48.2949 182.087 48.6699C182.848 49.0344 183.488 49.5397 184.004 50.1907V48.399H186.671ZM184.004 53.4615C183.796 52.5344 183.327 51.7844 182.608 51.2115C181.884 50.6438 181.025 50.3574 180.025 50.3574C179.301 50.3574 178.634 50.5397 178.025 50.899C177.41 51.2636 176.926 51.7636 176.566 52.399C176.217 53.024 176.046 53.7219 176.046 54.4824C176.046 55.2324 176.217 55.9199 176.566 56.5449C176.926 57.1594 177.41 57.6386 178.025 57.9824C178.634 58.3313 179.301 58.5032 180.025 58.5032C181.025 58.5032 181.889 58.2219 182.629 57.649C183.363 57.0657 183.822 56.3313 184.004 55.4407V53.4615Z" fill="black"/>
<path d="M202.189 48.5865V60.3574H199.793L199.626 58.1074C199.22 58.9146 198.605 59.5657 197.772 60.0657C196.939 60.5657 196.012 60.8157 195.001 60.8157C193.918 60.8157 193.027 60.4876 192.335 59.8365C191.637 59.1855 191.272 58.3365 191.23 57.2949V48.5865H193.876V56.3574C193.918 57.0136 194.111 57.5344 194.46 57.9199C194.819 58.3105 195.345 58.5188 196.043 58.5449C196.678 58.5449 197.262 58.3521 197.793 57.9615C198.335 57.5761 198.756 57.0396 199.064 56.3574C199.381 55.6803 199.543 54.9199 199.543 54.0865V48.5865H202.189Z" fill="black"/>
<path d="M212.295 58.3782C213.28 58.3782 214.238 58.0344 215.17 57.3365L216.4 59.3157C215.775 59.7324 215.092 60.0605 214.358 60.2949C213.618 60.5292 212.91 60.649 212.233 60.649C210.926 60.649 209.785 60.3782 208.816 59.8365C207.842 59.2949 207.087 58.5553 206.545 57.6074C206.014 56.649 205.754 55.5813 205.754 54.399C205.754 53.2324 206.045 52.1803 206.629 51.2324C207.212 50.274 208.004 49.5188 209.004 48.9615C210.004 48.3938 211.098 48.1074 212.295 48.1074C213.837 48.1074 215.118 48.5605 216.15 49.4615C217.176 50.3678 217.884 51.623 218.275 53.2324L208.941 56.4824C209.285 57.0813 209.743 57.5449 210.316 57.8782C210.9 58.2115 211.556 58.3782 212.295 58.3782ZM212.108 50.2115C211.025 50.2115 210.129 50.5969 209.42 51.3574C208.723 52.1074 208.379 53.0761 208.379 54.2532C208.379 54.5344 208.384 54.748 208.4 54.899L215.254 52.3782C214.962 51.7272 214.551 51.2063 214.025 50.8157C213.509 50.4147 212.868 50.2115 212.108 50.2115Z" fill="black"/>
<path d="M3.36978 15.4271H16.2917" stroke="black" stroke-width="5.38058" stroke-linecap="round"/>
<path d="M3.3802 57.1667H77.5885" stroke="black" stroke-width="5.38722" stroke-linecap="round"/>
<path d="M3.36458 57.1823L3.36458 17.3386" stroke="black" stroke-width="5.3592" stroke-linecap="round"/>
<path d="M309.729 12.7396H322.646" stroke="black" stroke-width="5.38058" stroke-linecap="round"/>
<path d="M245.995 54.474H320.203" stroke="black" stroke-width="5.38722" stroke-linecap="round"/>
<path d="M322.625 54.4896V14.6458" stroke="black" stroke-width="5.3592" stroke-linecap="round"/>
</svg>
