<svg width="176" height="33" viewBox="0 0 176 33" fill="none" xmlns="http://www.w3.org/2000/svg">
<path d="M34.327 0.126778H49.7235V1.31004H41.7812V6.53962H45.6858V7.74401H41.7812V13.0264H49.7235V14.2414H34.327V0.126778Z" fill="black"/>
<path d="M50.9276 0.126778H58.3708V13.0264H66.4129V14.2414H50.9276V0.126778Z" fill="black"/>
<path d="M74.7344 14.347C72.1748 14.347 70.3473 13.9931 69.2546 13.28C68.1592 12.5616 67.6129 11.4708 67.6129 10.0049V0.126778H75.7105V10.0049C75.7105 10.9636 75.9324 11.6609 76.3761 12.0967C76.8198 12.5352 77.4077 12.7517 78.1398 12.7517C79.7815 12.7517 80.6024 11.8379 80.6024 10.0049V0.126778H81.8448V10.0049C81.8448 11.1459 81.5896 12.0307 81.0794 12.6567C80.5747 13.2853 79.8148 13.7237 78.7943 13.9773C77.7793 14.2255 76.426 14.347 74.7344 14.347Z" fill="black"/>
<path d="M94.2092 5.18733C95.8952 5.61784 97.1515 6.1857 97.9807 6.88826C98.8154 7.59346 99.2341 8.5126 99.2341 9.64568C99.2341 10.549 98.9346 11.3545 98.3356 12.065C97.7422 12.7781 96.8714 13.3381 95.7178 13.7448C94.5697 14.1463 93.1803 14.347 91.5469 14.347C89.6085 14.347 87.9002 14.1093 86.4221 13.6286C84.9496 13.1506 83.7987 12.5695 82.9723 11.8854L83.6712 10.9768C84.4033 11.5262 85.3267 11.999 86.4443 12.3925C87.5591 12.7808 88.7571 12.9736 90.0383 12.9736C90.8731 12.9736 91.5053 12.8627 91.9352 12.6355C92.3622 12.4031 92.5785 12.0809 92.5785 11.6636C92.5785 10.9399 91.8242 10.372 90.3156 9.96262L87.5647 9.20196C86.0699 8.77408 84.9163 8.17453 84.1038 7.40594C83.2885 6.63999 82.8836 5.73141 82.8836 4.68021C82.8836 3.80862 83.172 3.01626 83.7488 2.30313C84.3312 1.59265 85.1742 1.03271 86.2779 0.623324C87.3872 0.208655 88.7183 0 90.2713 0C91.7577 0 93.1249 0.163755 94.3755 0.485982C95.6235 0.81085 96.644 1.20175 97.4371 1.65868L96.7383 2.58838C96.0727 2.22389 95.2768 1.91223 94.3534 1.65868C93.4271 1.40512 92.4565 1.27834 91.436 1.27834C90.5486 1.27834 89.8664 1.4104 89.395 1.66924C88.9208 1.93072 88.685 2.28992 88.685 2.74685C88.685 3.10077 88.8625 3.40715 89.2175 3.66599C89.5724 3.92747 90.2408 4.18367 91.2252 4.43722L94.2092 5.18733Z" fill="black"/>
<path d="M100.285 0.126778H107.196V14.2414H100.285V0.126778Z" fill="black"/>
<path d="M108.04 0.126778H114.906L119.753 10.5331L123.813 0.126778H125.444L119.853 14.2414H114.606L108.04 0.126778Z" fill="black"/>
<path d="M126.244 0.126778H141.641V1.31004H133.699V6.53962H137.603V7.74401H133.699V13.0264H141.641V14.2414H126.244V0.126778Z" fill="black"/>
<path d="M63.2709 23.9248C63.831 23.9248 64.3469 24.0569 64.8127 24.3157C65.2842 24.5772 65.6586 24.9443 65.9331 25.4145C66.2049 25.8793 66.3435 26.426 66.3435 27.052C66.3435 27.707 66.1938 28.2828 65.8998 28.7741C65.6114 29.26 65.2149 29.6351 64.7129 29.8939C64.2165 30.1528 63.6758 30.2848 63.0934 30.2848C62.5748 30.2848 62.1061 30.1898 61.6846 29.9996C61.2687 29.8041 60.9303 29.5427 60.6641 29.2178V30.1369H59.2553V18.9699H60.6641V24.9602C60.9303 24.6432 61.2908 24.395 61.7512 24.2101C62.2088 24.0199 62.7162 23.9248 63.2709 23.9248ZM62.7828 29.1333C63.3957 29.1333 63.9031 28.9378 64.3025 28.5416C64.7018 28.1481 64.9015 27.6516 64.9015 27.052C64.9015 26.6717 64.8072 26.3283 64.6242 26.0166C64.4384 25.6997 64.1832 25.4514 63.8588 25.2665C63.5315 25.0843 63.1738 24.9919 62.7828 24.9919C62.2725 24.9919 61.8205 25.1266 61.4295 25.3933C61.044 25.6548 60.7889 26.0008 60.6641 26.4287V27.6436C60.7889 28.0741 61.0413 28.4307 61.4184 28.7107C61.8011 28.9933 62.2559 29.1333 62.7828 29.1333Z" fill="black"/>
<path d="M67.6843 27.0943C67.6843 26.5106 67.8313 25.9744 68.128 25.4884C68.4303 25.0024 68.8435 24.6221 69.3704 24.3474C69.9028 24.0674 70.5018 23.9248 71.1674 23.9248C71.8329 23.9248 72.4236 24.0674 72.9422 24.3474C73.4663 24.6221 73.8684 25.0024 74.1513 25.4884C74.4397 25.9691 74.5839 26.5026 74.5839 27.0943C74.5839 27.6938 74.4397 28.2353 74.1513 28.7212C73.8684 29.2072 73.4663 29.5928 72.9422 29.8728C72.4153 30.1475 71.8135 30.2848 71.1341 30.2848C70.4824 30.2848 69.8945 30.1528 69.3704 29.8939C68.8435 29.6272 68.4303 29.2548 68.128 28.7741C67.8313 28.2881 67.6843 27.7282 67.6843 27.0943ZM69.1152 27.1154C69.1152 27.4904 69.1984 27.8338 69.3704 28.1507C69.5479 28.4677 69.7919 28.7186 70.1025 28.9008C70.4131 29.0857 70.7514 29.1755 71.123 29.1755C71.7054 29.1755 72.1907 28.9801 72.5761 28.5839C72.9588 28.1904 73.153 27.7017 73.153 27.1154C73.153 26.5238 72.9588 26.0325 72.5761 25.6363C72.1907 25.2349 71.7054 25.0341 71.123 25.0341C70.7375 25.0341 70.3937 25.1292 70.0914 25.3194C69.7863 25.5043 69.5479 25.7525 69.3704 26.0695C69.1984 26.3864 69.1152 26.7351 69.1152 27.1154Z" fill="black"/>
<path d="M82.3088 24.1678V30.1369H81.0331L80.9444 28.9959C80.7281 29.4053 80.4008 29.7355 79.9571 29.989C79.5134 30.2426 79.0198 30.3694 78.4818 30.3694C77.905 30.3694 77.4308 30.203 77.062 29.8728C76.6904 29.5427 76.4962 29.1121 76.4741 28.5839V24.1678H77.8828V28.1085C77.905 28.4413 78.0076 28.7054 78.1934 28.9008C78.3848 29.0989 78.6649 29.2046 79.0365 29.2178C79.3748 29.2178 79.6854 29.1201 79.9682 28.922C80.2566 28.7265 80.4813 28.4545 80.6449 28.1085C80.814 27.7651 80.9 27.3795 80.9 26.9569V24.1678H82.3088Z" fill="black"/>
<path d="M86.7805 21.5477V24.1889H88.4888V25.256H86.7805V30.1369H85.3606V25.256H84.207V24.1889H85.3606V21.5477H86.7805Z" fill="black"/>
<path d="M91.6063 24.1678V30.1369H90.1976V24.1678H91.6063ZM89.765 21.9069C89.765 21.6956 89.8482 21.5213 90.0201 21.3787C90.1893 21.2308 90.3862 21.1568 90.608 21.1568C90.8299 21.1568 91.0212 21.2308 91.1848 21.3787C91.354 21.5213 91.44 21.6956 91.44 21.9069C91.44 22.1182 91.354 22.2978 91.1848 22.4457C91.0212 22.5884 90.8299 22.657 90.608 22.657C90.3862 22.657 90.1893 22.5884 90.0201 22.4457C89.8482 22.2978 89.765 22.1182 89.765 21.9069Z" fill="black"/>
<path d="M100.601 24.0727V33H99.1918V29.2389C98.9256 29.5506 98.5595 29.8041 98.0936 29.9996C97.6333 30.1898 97.1286 30.2848 96.5739 30.2848C96.011 30.2848 95.498 30.1528 95.0321 29.8939C94.5662 29.6351 94.1946 29.268 93.9228 28.7952C93.6483 28.3171 93.5124 27.7651 93.5124 27.1365C93.5124 26.5185 93.6594 25.9638 93.9561 25.4778C94.2584 24.9866 94.6577 24.6063 95.1541 24.3368C95.656 24.0622 96.2107 23.9248 96.818 23.9248C97.3116 23.9248 97.7608 24.0199 98.1602 24.2101C98.5651 24.395 98.9062 24.6512 99.1807 24.9813V24.0727H100.601ZM99.1807 26.64C99.0698 26.1698 98.8202 25.7895 98.4375 25.499C98.052 25.2111 97.5945 25.0658 97.062 25.0658C96.6765 25.0658 96.3216 25.1583 95.9971 25.3405C95.6699 25.5254 95.412 25.7789 95.2206 26.1012C95.0348 26.4181 94.9433 26.772 94.9433 27.1577C94.9433 27.538 95.0348 27.8866 95.2206 28.2036C95.412 28.5152 95.6699 28.7582 95.9971 28.9325C96.3216 29.1095 96.6765 29.1967 97.062 29.1967C97.5945 29.1967 98.0548 29.054 98.4486 28.7635C98.8396 28.4677 99.0836 28.0953 99.1807 27.6436V26.64Z" fill="black"/>
<path d="M108.863 24.1678V30.1369H107.587L107.499 28.9959C107.282 29.4053 106.955 29.7355 106.511 29.989C106.068 30.2426 105.574 30.3694 105.036 30.3694C104.459 30.3694 103.985 30.203 103.616 29.8728C103.245 29.5427 103.051 29.1121 103.028 28.5839V24.1678H104.437V28.1085C104.459 28.4413 104.562 28.7054 104.748 28.9008C104.939 29.0989 105.219 29.2046 105.591 29.2178C105.929 29.2178 106.24 29.1201 106.523 28.922C106.811 28.7265 107.036 28.4545 107.199 28.1085C107.368 27.7651 107.454 27.3795 107.454 26.9569V24.1678H108.863Z" fill="black"/>
<path d="M114.244 29.1333C114.769 29.1333 115.279 28.959 115.775 28.605L116.43 29.6087C116.097 29.82 115.734 29.9864 115.343 30.1052C114.949 30.2241 114.572 30.2848 114.211 30.2848C113.515 30.2848 112.908 30.1475 112.392 29.8728C111.873 29.5981 111.471 29.2231 111.183 28.7424C110.9 28.2564 110.761 27.7149 110.761 27.1154C110.761 26.5238 110.917 25.9902 111.227 25.5095C111.538 25.0236 111.959 24.6406 112.492 24.358C113.024 24.0701 113.607 23.9248 114.244 23.9248C115.065 23.9248 115.747 24.1546 116.297 24.6115C116.843 25.0711 117.22 25.7076 117.428 26.5238L112.458 28.1719C112.642 28.4756 112.886 28.7107 113.191 28.8797C113.501 29.0488 113.851 29.1333 114.244 29.1333ZM114.145 24.9919C113.568 24.9919 113.091 25.1873 112.714 25.5729C112.342 25.9533 112.159 26.4445 112.159 27.0414C112.159 27.1841 112.162 27.2924 112.17 27.369L115.82 26.0906C115.664 25.7605 115.445 25.4963 115.165 25.2982C114.891 25.0949 114.549 24.9919 114.145 24.9919Z" fill="black"/>
<path d="M3.00287 7.35229H9.88307" stroke="black" stroke-width="5.38058" stroke-linecap="round"/>
<path d="M3.00832 28.5189H42.5202" stroke="black" stroke-width="5.38722" stroke-linecap="round"/>
<path d="M3 28.5268L3 8.32162" stroke="black" stroke-width="5.3592" stroke-linecap="round"/>
<path d="M166.123 5.98943H173" stroke="black" stroke-width="5.38058" stroke-linecap="round"/>
<path d="M132.187 27.1534H171.699" stroke="black" stroke-width="5.38722" stroke-linecap="round"/>
<path d="M172.989 27.1613V6.95611" stroke="black" stroke-width="5.3592" stroke-linecap="round"/>
</svg>
